
<svg width="500" height="500" viewBox="0 0 500 500" fill="none" xmlns="http://www.w3.org/2000/svg">
<circle cx="250" cy="250" r="240" fill="white" stroke="#2D7D47" stroke-width="10"/>
<path d="M250 50C250 50 200 100 150 120C100 140 80 180 70 220C60 260 80 300 120 330C160 360 200 380 250 380C300 380 340 360 380 330C420 300 440 260 430 220C420 180 400 140 350 120C300 100 250 50 250 50Z" fill="#2D7D47"/>
<path d="M150 120L120 180L180 200L220 150L170 110Z" fill="#2D7D47"/>
<path d="M350 120L380 180L320 200L280 150L330 110Z" fill="#2D7D47"/>
<path d="M180 200L120 260L160 320L220 300L200 240Z" fill="#2D7D47"/>
<path d="M320 200L380 260L340 320L280 300L300 240Z" fill="#2D7D47"/>
<path d="M200 240L220 300L280 300L300 240L250 220Z" fill="#2D7D47"/>
<path d="M160 320L220 380L280 380L340 320L300 300L220 300Z" fill="#2D7D47"/>
</svg>
